<svg width="30" height="41" viewBox="0 0 30 41" fill="none" xmlns="http://www.w3.org/2000/svg">
<path d="M4.65879 31.4218L0.448788 38.2077L0.896788 40.4272L3.01679 39.9532L7.22479 33.1715C6.3199 32.6716 5.46095 32.0859 4.65879 31.4218ZM22.4828 29.0519C22.5108 28.9914 22.5288 28.9246 22.5548 28.8598C22.6608 28.6155 22.7548 28.3712 22.8308 28.1144C22.8428 28.0685 22.8488 28.0225 22.8628 27.9808C22.9408 27.7002 23.0062 27.4159 23.0588 27.1289V27.085C23.4488 24.6442 22.7688 21.9215 21.2128 19.4618L23.4328 15.883C25.9908 16.2234 28.2028 15.5511 29.2668 13.8327C31.1128 10.8615 28.8668 5.91505 24.2568 2.781C19.6428 -0.355143 14.4108 -0.486686 12.5688 2.48033C11.5008 4.20082 11.8128 6.58738 13.1548 8.89668L10.9308 12.4755C8.15279 11.989 5.49879 12.4421 3.52479 13.8118C3.51279 13.816 3.49879 13.8201 3.49079 13.8285C3.26015 13.9922 3.03847 14.1692 2.82679 14.3588C2.79279 14.3881 2.75279 14.4152 2.72479 14.4444C2.53278 14.6216 2.35175 14.8113 2.18279 15.0124C2.14279 15.0625 2.08679 15.1063 2.04879 15.1585C1.83578 15.4104 1.64186 15.6791 1.46879 15.9624C-1.29921 20.416 1.06279 27.156 6.73479 31.0146C12.4108 34.8732 19.2548 34.3846 22.0168 29.931C22.1908 29.6491 22.3508 29.3547 22.4828 29.0519ZM20.8528 8.25985C19.0788 7.05509 18.2128 5.15503 18.9228 4.00873C19.6308 2.8666 21.6448 2.9188 23.4148 4.12357C25.1928 5.32833 26.0508 7.23256 25.3448 8.37469C24.6388 9.51681 22.6288 9.46461 20.8528 8.25985Z" fill="#009FAC"/>
</svg>
